<?xml version="1.0" encoding="UTF-8"?>
<svg width="122px" height="122px" viewBox="0 0 122 122" version="1.1" xmlns="http://www.w3.org/2000/svg" xmlns:xlink="http://www.w3.org/1999/xlink">
    <title>addl-more-less-wht</title>
    <g id="addl-more-less-wht" stroke="none" stroke-width="1" fill="none" fill-rule="evenodd">
        <g id="np_half_3202302_000000" fill="#FFFFFF" fill-rule="nonzero">
            <path d="M61,0.635416667 C94.2945625,0.635416667 121.364583,27.7054375 121.364583,61 C121.364583,94.2945625 94.2945625,121.364583 61,121.364583 C27.7054375,121.364583 0.635416667,94.2945625 0.635416667,61 C0.635416667,27.7054375 27.7054375,0.635416667 61,0.635416667 Z M106.497104,61 L15.5028958,61 C15.5028958,86.0341458 35.8362292,106.497104 61,106.497104 C86.1637708,106.497104 106.497104,86.1637708 106.497104,61 L106.497104,61 Z M45.2727273,30 L40.7272727,30 C40.2144369,30 39.7917656,30.3860402 39.7340005,30.8833789 L39.7272727,31 L39.7264167,37.9994167 L32,38 C31.4871642,38 31.0644928,38.3860402 31.0067277,38.8833789 L31,39 L31,43 C31,43.5128358 31.3860402,43.9355072 31.8833789,43.9932723 L32,44 L39.7264167,43.9994167 L39.7272727,51 C39.7272727,51.5128358 40.1133129,51.9355072 40.6106516,51.9932723 L40.7272727,52 L45.2727273,52 C45.7855631,52 46.2082344,51.6139598 46.2659995,51.1166211 L46.2727273,51 L46.2724167,43.9994167 L54,44 C54.5128358,44 54.9355072,43.6139598 54.9932723,43.1166211 L55,43 L55,39 C55,38.4871642 54.6139598,38.0644928 54.1166211,38.0067277 L54,38 L46.2724167,37.9994167 L46.2727273,31 C46.2727273,30.4871642 45.8866871,30.0644928 45.3893484,30.0067277 L45.2727273,30 Z M90,38 L68,38 C67.4871642,38 67.0644928,38.3860402 67.0067277,38.8833789 L67,39 L67,43 C67,43.5128358 67.3860402,43.9355072 67.8833789,43.9932723 L68,44 L90,44 C90.5128358,44 90.9355072,43.6139598 90.9932723,43.1166211 L91,43 L91,39 C91,38.4477153 90.5522847,38 90,38 Z" id="Shape"></path>
        </g>
    </g>
</svg>