<?xml version="1.0" encoding="UTF-8"?>
<svg width="122px" height="122px" viewBox="0 0 122 122" version="1.1" xmlns="http://www.w3.org/2000/svg" xmlns:xlink="http://www.w3.org/1999/xlink">
    <title>addl-more-less-blk</title>
    <g id="addl-more-less-blk" stroke="none" stroke-width="1" fill="none" fill-rule="evenodd">
        <g id="np_half_3202302_000000" fill="#000000" fill-rule="nonzero">
            <path d="M61,0.635416667 C27.7054375,0.635416667 0.635416667,27.7054375 0.635416667,61 C0.635416667,94.2945625 27.7054375,121.364583 61,121.364583 C94.2945625,121.364583 121.364583,94.2945625 121.364583,61 C121.364583,27.7054375 94.2945625,0.635416667 61,0.635416667 Z M60.3988958,103.896 C36.6472089,103.896 17.4548958,86.3372145 17.4548958,64.856 L103.342896,64.856 C103.342896,86.4484427 84.1505828,103.896 60.3988958,103.896 Z" id="Shape"></path>
        </g>
        <g id="Group" transform="translate(31.000000, 30.000000)" fill="#FFFFFF">
            <rect id="Rectangle-Copy-3" x="0" y="8" width="24" height="6" rx="1"></rect>
            <rect id="Rectangle-Copy-4" x="8.72727273" y="0" width="6.54545455" height="22" rx="1"></rect>
        </g>
        <rect id="Rectangle-Copy-3" fill="#FFFFFF" x="67" y="38" width="24" height="6" rx="1"></rect>
    </g>
</svg>