<?xml version="1.0" encoding="UTF-8"?>
<svg width="40px" height="40px" viewBox="0 0 40 40" version="1.1" xmlns="http://www.w3.org/2000/svg" xmlns:xlink="http://www.w3.org/1999/xlink">
    <title>Group</title>
    <g id="Symbols" stroke="none" stroke-width="1" fill="none" fill-rule="evenodd">
        <g id="Arrow-Black">
            <g id="Group">
                <circle id="Oval" fill="#000000" cx="20" cy="20" r="20"></circle>
                <path d="M15.1844847,20.4758065 L19.1001686,24.7612706 C19.3527302,25.0539519 19.851001,25.0799822 20.1430457,24.8257113 C20.4347642,24.5714404 20.4641318,24.0854371 20.1939496,23.8089453 L17.3642154,20.7138879 L25.03504,20.7138879 C25.4403133,20.7138879 25.7692308,20.3939065 25.7692308,19.9996439 C25.7692308,19.6053812 25.4403133,19.2853998 25.03504,19.2853998 L17.3642154,19.2853998 L20.1939496,16.1903424 C20.465437,15.9138507 20.4285643,15.429117 20.1352143,15.1748462 C19.8434959,14.9205753 19.351425,14.9453358 19.1001686,15.2380171 L15.1844847,19.5234812 C14.9283337,19.8694927 14.9488911,20.1805857 15.1844847,20.4758065 Z" id="Page-1" fill="#FFFFFF"></path>
            </g>
        </g>
    </g>
</svg>